<?xml version="1.0" encoding="UTF-8"?>
<svg xmlns="http://www.w3.org/2000/svg" xmlns:xlink="http://www.w3.org/1999/xlink" version="1.1" width="600px" height="337px" style="shape-rendering:geometricPrecision; text-rendering:geometricPrecision; image-rendering:optimizeQuality; fill-rule:evenodd; clip-rule:evenodd">
  <g>
    <path style="opacity:1" fill="#651371" d="M 134.5,5.5 C 244.5,5.5 354.5,5.5 464.5,5.5C 464.5,113.833 464.5,222.167 464.5,330.5C 354.5,330.5 244.5,330.5 134.5,330.5C 134.5,222.167 134.5,113.833 134.5,5.5 Z"></path>
  </g>
  <g>
    <path style="opacity:1" fill="#faf8fa" d="M 377.5,61.5 C 377.748,90.8457 377.414,120.179 376.5,149.5C 369.918,182.061 350.918,203.394 319.5,213.5C 314.684,213.58 310.017,214.414 305.5,216C 299.175,216.5 292.842,216.666 286.5,216.5C 283.493,214.825 280.16,214.159 276.5,214.5C 245.466,206.8 226.133,187.466 218.5,156.5C 218.01,153.345 217.344,150.345 216.5,147.5C 214.335,131.205 214.002,114.872 215.5,98.5C 216.495,87.012 216.828,75.3453 216.5,63.5C 220.167,63.5 223.833,63.5 227.5,63.5C 227.169,88.0057 227.502,112.339 228.5,136.5C 228.194,139.385 228.527,142.052 229.5,144.5C 234.796,176.964 253.796,196.13 286.5,202C 299.217,203.349 311.55,201.849 323.5,197.5C 327.684,197.408 331.017,195.741 333.5,192.5C 346.645,183.218 355.645,170.885 360.5,155.5C 361.679,151.673 362.679,147.673 363.5,143.5C 364.5,115.841 364.833,88.1747 364.5,60.5C 369.032,60.1818 373.366,60.5151 377.5,61.5 Z"></path>
  </g>
  <g>
    <path style="opacity:1" fill="#ac87b1" d="M 377.5,61.5 C 378.663,87.6635 378.83,113.997 378,140.5C 377.819,143.695 377.319,146.695 376.5,149.5C 377.414,120.179 377.748,90.8457 377.5,61.5 Z"></path>
  </g>
  <g>
    <path style="opacity:1" fill="#c1a6c5" d="M 305.5,67.5 C 298.745,67.2066 292.078,67.5399 285.5,68.5C 288.428,67.1803 291.761,66.5136 295.5,66.5C 299.018,66.5016 302.351,66.8349 305.5,67.5 Z"></path>
  </g>
  <g>
    <path style="opacity:1" fill="#f9f7fa" d="M 305.5,67.5 C 305.62,68.5862 306.287,69.2528 307.5,69.5C 313.328,71.2554 318.994,73.2554 324.5,75.5C 324.973,76.9063 325.973,77.573 327.5,77.5C 343.899,88.2324 353.899,103.232 357.5,122.5C 357.691,130.201 357.358,137.868 356.5,145.5C 356.5,146.167 356.5,146.833 356.5,147.5C 354.96,149.838 354.294,152.505 354.5,155.5C 342.352,185.248 320.019,199.248 287.5,197.5C 285.343,196.593 283.01,195.927 280.5,195.5C 278.786,194.262 276.786,193.595 274.5,193.5C 259.552,187.768 248.385,177.768 241,163.5C 238.262,158.384 236.429,153.051 235.5,147.5C 234.167,137.5 234.167,127.5 235.5,117.5C 235.5,117.167 235.5,116.833 235.5,116.5C 236.795,114.021 237.795,111.354 238.5,108.5C 245.961,90.3734 258.961,78.0401 277.5,71.5C 280.152,71.5905 282.485,70.9238 284.5,69.5C 285.167,69.5 285.5,69.1667 285.5,68.5C 292.078,67.5399 298.745,67.2066 305.5,67.5 Z"></path>
  </g>
  <g>
    <path style="opacity:1" fill="#b08cb5" d="M 284.5,69.5 C 282.485,70.9238 280.152,71.5905 277.5,71.5C 279.515,70.0762 281.848,69.4095 284.5,69.5 Z"></path>
  </g>
  <g>
    <path style="opacity:1" fill="#a981ae" d="M 324.5,75.5 C 326.027,75.427 327.027,76.0937 327.5,77.5C 325.973,77.573 324.973,76.9063 324.5,75.5 Z"></path>
  </g>
  <g>
    <path style="opacity:1" fill="#d5c3d8" d="M 228.5,136.5 C 227.502,112.339 227.169,88.0057 227.5,63.5C 223.833,63.5 220.167,63.5 216.5,63.5C 216.828,75.3453 216.495,87.012 215.5,98.5C 215.5,86.5 215.5,74.5 215.5,62.5C 219.833,62.5 224.167,62.5 228.5,62.5C 228.5,87.1667 228.5,111.833 228.5,136.5 Z"></path>
  </g>
  <g>
    <path style="opacity:1" fill="#661771" d="M 287.5,89.5 C 288.441,94.0704 288.774,98.737 288.5,103.5C 293.363,103.819 298.03,103.486 302.5,102.5C 302.964,98.0504 303.964,93.7171 305.5,89.5C 305.5,87.1667 305.5,84.8333 305.5,82.5C 326.089,87.922 339.256,100.922 345,121.5C 347.995,140.874 342.828,157.708 329.5,172C 324.634,175.934 319.301,179.1 313.5,181.5C 303.346,184.651 293.013,185.318 282.5,183.5C 259.509,174.896 247.175,158.229 245.5,133.5C 246.008,114.315 254.008,99.1487 269.5,88C 274.66,86.4484 279.66,84.6151 284.5,82.5C 284.974,85.2167 285.974,87.5501 287.5,89.5 Z"></path>
  </g>
  <g>
    <path style="opacity:1" fill="#c4aac7" d="M 287.5,89.5 C 289.43,93.3727 290.097,97.706 289.5,102.5C 293.833,102.5 298.167,102.5 302.5,102.5C 298.03,103.486 293.363,103.819 288.5,103.5C 288.774,98.737 288.441,94.0704 287.5,89.5 Z"></path>
  </g>
  <g>
    <path style="opacity:1" fill="#894f91" d="M 305.5,89.5 C 303.964,93.7171 302.964,98.0504 302.5,102.5C 302.5,98.1667 302.5,93.8333 302.5,89.5C 303.5,89.5 304.5,89.5 305.5,89.5 Z"></path>
  </g>
  <g>
    <path style="opacity:1" fill="#faf8fa" d="M 281.5,90.5 C 283.423,94.0293 284.089,98.0293 283.5,102.5C 281.473,102.338 279.473,102.505 277.5,103C 276.944,103.383 276.611,103.883 276.5,104.5C 276.167,105.167 275.833,105.833 275.5,106.5C 274.007,107.312 273.34,108.645 273.5,110.5C 273.599,112.799 274.266,114.799 275.5,116.5C 277.504,121.498 280.837,125.165 285.5,127.5C 286.568,128.434 287.901,128.768 289.5,128.5C 289.5,125.5 289.5,122.5 289.5,119.5C 293.833,119.5 298.167,119.5 302.5,119.5C 302.5,126.5 302.5,133.5 302.5,140.5C 296.137,140.593 289.804,140.26 283.5,139.5C 266.733,132.962 260.233,120.962 264,103.5C 267.949,96.611 273.782,92.2777 281.5,90.5 Z"></path>
  </g>
  <g>
    <path style="opacity:1" fill="#935e9a" d="M 281.5,90.5 C 282.209,89.596 283.209,89.2627 284.5,89.5C 284.5,94.1667 284.5,98.8333 284.5,103.5C 281.763,103.401 279.096,103.735 276.5,104.5C 276.611,103.883 276.944,103.383 277.5,103C 279.473,102.505 281.473,102.338 283.5,102.5C 284.089,98.0293 283.423,94.0293 281.5,90.5 Z"></path>
  </g>
  <g>
    <path style="opacity:1" fill="#aa81ae" d="M 275.5,106.5 C 274.481,109.794 274.481,113.128 275.5,116.5C 274.266,114.799 273.599,112.799 273.5,110.5C 273.34,108.645 274.007,107.312 275.5,106.5 Z"></path>
  </g>
  <g>
    <path style="opacity:1" fill="#a072a5" d="M 238.5,108.5 C 237.795,111.354 236.795,114.021 235.5,116.5C 235.307,113.189 236.307,110.522 238.5,108.5 Z"></path>
  </g>
  <g>
    <path style="opacity:1" fill="#f9f6f9" d="M 312.5,119.5 C 326.942,125.059 331.775,135.392 327,150.5C 325.11,157.05 321.61,162.55 316.5,167C 314.807,167.847 313.14,168.68 311.5,169.5C 308.457,170.247 305.791,171.08 303.5,172C 298.177,172.499 292.844,172.666 287.5,172.5C 284.5,172.167 283.167,173.5 283.5,176.5C 280.103,177.192 276.77,177.192 273.5,176.5C 274.544,174.232 274.711,171.899 274,169.5C 272.156,166.472 270.322,163.472 268.5,160.5C 268.342,157.098 268.676,153.764 269.5,150.5C 271.392,146.832 274.392,145.665 278.5,147C 281.468,150.062 283.802,153.562 285.5,157.5C 298.551,163.943 308.551,160.943 315.5,148.5C 316.972,146.883 317.639,144.883 317.5,142.5C 317.489,140.955 317.156,139.622 316.5,138.5C 316.141,136.629 315.141,135.129 313.5,134C 310.459,132.79 307.792,131.29 305.5,129.5C 305.5,126.167 305.5,122.833 305.5,119.5C 307.833,119.5 310.167,119.5 312.5,119.5 Z"></path>
  </g>
  <g>
    <path style="opacity:1" fill="#cdb6cf" d="M 302.5,119.5 C 298.167,119.5 293.833,119.5 289.5,119.5C 289.5,122.5 289.5,125.5 289.5,128.5C 287.901,128.768 286.568,128.434 285.5,127.5C 286.5,127.5 287.5,127.5 288.5,127.5C 288.5,124.5 288.5,121.5 288.5,118.5C 293.363,118.181 298.03,118.514 302.5,119.5 Z"></path>
  </g>
  <g>
    <path style="opacity:1" fill="#a376a8" d="M 312.5,119.5 C 310.167,119.5 307.833,119.5 305.5,119.5C 305.5,122.833 305.5,126.167 305.5,129.5C 304.517,125.702 304.183,121.702 304.5,117.5C 307.373,117.802 310.039,118.469 312.5,119.5 Z"></path>
  </g>
  <g>
    <path style="opacity:1" fill="#ad87b2" d="M 357.5,122.5 C 358.491,129.313 358.825,136.313 358.5,143.5C 357.833,144.167 357.167,144.833 356.5,145.5C 357.358,137.868 357.691,130.201 357.5,122.5 Z"></path>
  </g>
  <g>
    <path style="opacity:1" fill="#d8c7da" d="M 235.5,117.5 C 234.167,127.5 234.167,137.5 235.5,147.5C 233.925,140.73 233.259,133.73 233.5,126.5C 233.858,123.311 234.525,120.311 235.5,117.5 Z"></path>
  </g>
  <g>
    <path style="opacity:1" fill="#d1bdd3" d="M 283.5,139.5 C 289.804,140.26 296.137,140.593 302.5,140.5C 300.022,141.164 297.355,141.497 294.5,141.5C 290.531,141.706 286.865,141.039 283.5,139.5 Z"></path>
  </g>
  <g>
    <path style="opacity:1" fill="#bb9bbf" d="M 316.5,138.5 C 317.156,139.622 317.489,140.955 317.5,142.5C 317.639,144.883 316.972,146.883 315.5,148.5C 316.207,145.214 316.54,141.881 316.5,138.5 Z"></path>
  </g>
  <g>
    <path style="opacity:1" fill="#95619b" d="M 216.5,147.5 C 217.344,150.345 218.01,153.345 218.5,156.5C 217.883,156.389 217.383,156.056 217,155.5C 216.503,152.854 216.336,150.187 216.5,147.5 Z"></path>
  </g>
  <g>
    <path style="opacity:1" fill="#682073" d="M 233.5,126.5 C 233.259,133.73 233.925,140.73 235.5,147.5C 236.429,153.051 238.262,158.384 241,163.5C 248.385,177.768 259.552,187.768 274.5,193.5C 275.99,195.28 277.99,195.946 280.5,195.5C 280.611,196.117 280.944,196.617 281.5,197C 283.473,197.495 285.473,197.662 287.5,197.5C 320.019,199.248 342.352,185.248 354.5,155.5C 355.768,153.095 356.435,150.428 356.5,147.5C 356.5,146.833 356.5,146.167 356.5,145.5C 357.167,144.833 357.833,144.167 358.5,143.5C 358.721,146.097 359.221,146.097 360,143.5C 360.738,146.903 360.238,150.07 358.5,153C 358.684,154.376 359.351,155.209 360.5,155.5C 355.645,170.885 346.645,183.218 333.5,192.5C 330.123,194.175 326.789,195.842 323.5,197.5C 311.55,201.849 299.217,203.349 286.5,202C 253.796,196.13 234.796,176.964 229.5,144.5C 230.314,146.631 230.814,148.964 231,151.5C 231.46,142.979 232.293,134.646 233.5,126.5 Z"></path>
  </g>
  <g>
    <path style="opacity:1" fill="#b38fb7" d="M 313.5,181.5 C 311.042,183.713 308.042,184.879 304.5,185C 298.833,185.667 293.167,185.667 287.5,185C 285.618,184.802 283.952,184.302 282.5,183.5C 293.013,185.318 303.346,184.651 313.5,181.5 Z"></path>
  </g>
  <g>
    <path style="opacity:1" fill="#dfd0e0" d="M 311.5,169.5 C 309.91,171.234 307.91,172.4 305.5,173C 299.319,173.819 293.319,173.653 287.5,172.5C 292.844,172.666 298.177,172.499 303.5,172C 305.791,171.08 308.457,170.247 311.5,169.5 Z"></path>
  </g>
  <g>
    <path style="opacity:1" fill="#bd9fc1" d="M 269.5,150.5 C 268.676,153.764 268.342,157.098 268.5,160.5C 267.362,157.696 267.195,154.696 268,151.5C 268.383,150.944 268.883,150.611 269.5,150.5 Z"></path>
  </g>
  <g>
    <path style="opacity:1" fill="#c6acc9" d="M 356.5,147.5 C 356.435,150.428 355.768,153.095 354.5,155.5C 354.294,152.505 354.96,149.838 356.5,147.5 Z"></path>
  </g>
  <g>
    <path style="opacity:1" fill="#ac85b1" d="M 274.5,193.5 C 276.786,193.595 278.786,194.262 280.5,195.5C 277.99,195.946 275.99,195.28 274.5,193.5 Z"></path>
  </g>
  <g>
    <path style="opacity:1" fill="#d0bad2" d="M 333.5,192.5 C 331.017,195.741 327.684,197.408 323.5,197.5C 326.789,195.842 330.123,194.175 333.5,192.5 Z"></path>
  </g>
  <g>
    <path style="opacity:1" fill="#98669e" d="M 280.5,195.5 C 283.01,195.927 285.343,196.593 287.5,197.5C 285.473,197.662 283.473,197.495 281.5,197C 280.944,196.617 280.611,196.117 280.5,195.5 Z"></path>
  </g>
  <g>
    <path style="opacity:1" fill="#b38fb7" d="M 276.5,214.5 C 280.16,214.159 283.493,214.825 286.5,216.5C 282.922,216.451 279.589,215.785 276.5,214.5 Z"></path>
  </g>
  <g>
    <path style="opacity:1" fill="#9d6ea3" d="M 319.5,213.5 C 308.745,217.387 297.745,218.387 286.5,216.5C 292.842,216.666 299.175,216.5 305.5,216C 310.017,214.414 314.684,213.58 319.5,213.5 Z"></path>
  </g>
  <g>
    <path style="opacity:1" fill="#fbfafb" d="M 216.5,224.5 C 219.713,224.19 222.713,224.523 225.5,225.5C 225.5,228.167 225.5,230.833 225.5,233.5C 222.5,233.5 219.5,233.5 216.5,233.5C 216.5,230.5 216.5,227.5 216.5,224.5 Z"></path>
  </g>
  <g>
    <path style="opacity:1" fill="#c9b1cc" d="M 216.5,224.5 C 216.5,227.5 216.5,230.5 216.5,233.5C 219.5,233.5 222.5,233.5 225.5,233.5C 225.5,230.833 225.5,228.167 225.5,225.5C 226.477,228.287 226.81,231.287 226.5,234.5C 222.833,234.5 219.167,234.5 215.5,234.5C 215.187,230.958 215.521,227.625 216.5,224.5 Z"></path>
  </g>
  <g>
    <path style="opacity:1" fill="#f8f4f8" d="M 227.5,247.5 C 234.505,235.801 243.839,233.467 255.5,240.5C 255.821,242.048 256.821,242.715 258.5,242.5C 258.5,241.167 258.5,239.833 258.5,238.5C 260.833,238.5 263.167,238.5 265.5,238.5C 265.5,251.5 265.5,264.5 265.5,277.5C 261.575,291.718 252.408,296.718 238,292.5C 233.273,290.607 230.106,287.274 228.5,282.5C 230.635,280.631 233.302,279.964 236.5,280.5C 237.483,282.291 238.816,283.791 240.5,285C 249.699,287.943 255.366,284.776 257.5,275.5C 257.167,274.833 256.833,274.167 256.5,273.5C 251.124,277.293 245.124,278.459 238.5,277C 235.299,276.121 232.632,274.455 230.5,272C 229.43,269.258 227.93,266.758 226,264.5C 225.501,268.486 225.334,272.486 225.5,276.5C 222.167,276.5 218.833,276.5 215.5,276.5C 215.5,263.167 215.5,249.833 215.5,236.5C 218.833,236.5 222.167,236.5 225.5,236.5C 225.334,240.846 225.501,245.179 226,249.5C 226.717,248.956 227.217,248.289 227.5,247.5 Z"></path>
  </g>
  <g>
    <path style="opacity:1" fill="#f7f4f8" d="M 277.5,252.5 C 276.508,260.316 276.174,268.316 276.5,276.5C 274.167,276.5 271.833,276.5 269.5,276.5C 269.5,263.833 269.5,251.167 269.5,238.5C 271.5,238.5 273.5,238.5 275.5,238.5C 275.5,239.5 275.5,240.5 275.5,241.5C 276.791,241.737 277.791,241.404 278.5,240.5C 278.5,240.167 278.5,239.833 278.5,239.5C 288.569,233.611 296.069,235.944 301,246.5C 301.5,256.494 301.666,266.494 301.5,276.5C 298.5,276.5 295.5,276.5 292.5,276.5C 292.917,267.085 292.417,257.752 291,248.5C 288.098,245.686 284.598,244.853 280.5,246C 278.781,247.87 277.781,250.037 277.5,252.5 Z"></path>
  </g>
  <g>
    <path style="opacity:1" fill="#d6c3d7" d="M 334.5,239.5 C 328.211,238.628 321.878,238.295 315.5,238.5C 321.99,235.665 328.324,235.998 334.5,239.5 Z"></path>
  </g>
  <g>
    <path style="opacity:1" fill="#925c98" d="M 354.5,260.5 C 353.508,253.018 353.175,245.352 353.5,237.5C 350.833,237.5 348.167,237.5 345.5,237.5C 345.827,242.214 345.493,246.88 344.5,251.5C 343.893,251.376 343.56,251.043 343.5,250.5C 344.486,246.03 344.819,241.363 344.5,236.5C 347.833,236.5 351.167,236.5 354.5,236.5C 354.5,244.5 354.5,252.5 354.5,260.5 Z"></path>
  </g>
  <g>
    <path style="opacity:1" fill="#ae89b3" d="M 370.5,237.5 C 372.607,236.532 374.941,236.198 377.5,236.5C 378.833,249.833 378.833,263.167 377.5,276.5C 377.5,263.5 377.5,250.5 377.5,237.5C 375.167,237.5 372.833,237.5 370.5,237.5 Z"></path>
  </g>
  <g>
    <path style="opacity:1" fill="#af8ab4" d="M 265.5,277.5 C 265.5,264.5 265.5,251.5 265.5,238.5C 263.167,238.5 260.833,238.5 258.5,238.5C 258.5,239.833 258.5,241.167 258.5,242.5C 256.821,242.715 255.821,242.048 255.5,240.5C 256.117,240.611 256.617,240.944 257,241.5C 257.49,240.207 257.657,238.873 257.5,237.5C 260.5,237.5 263.5,237.5 266.5,237.5C 266.829,251.01 266.496,264.344 265.5,277.5 Z"></path>
  </g>
  <g>
    <path style="opacity:1" fill="#dbccdd" d="M 278.5,240.5 C 277.791,241.404 276.791,241.737 275.5,241.5C 275.5,240.5 275.5,239.5 275.5,238.5C 273.5,238.5 271.5,238.5 269.5,238.5C 269.5,251.167 269.5,263.833 269.5,276.5C 269.167,276.5 268.833,276.5 268.5,276.5C 268.5,263.5 268.5,250.5 268.5,237.5C 271.167,237.5 273.833,237.5 276.5,237.5C 276.285,239.179 276.952,240.179 278.5,240.5 Z"></path>
  </g>
  <g>
    <path style="opacity:1" fill="#f8f5f8" d="M 354.5,260.5 C 354.971,262.579 355.637,264.579 356.5,266.5C 357.334,267.748 358.667,268.415 360.5,268.5C 362.045,268.489 363.378,268.156 364.5,267.5C 367.518,266.145 368.851,263.812 368.5,260.5C 369.167,252.833 369.833,245.167 370.5,237.5C 372.833,237.5 375.167,237.5 377.5,237.5C 377.5,250.5 377.5,263.5 377.5,276.5C 374.833,276.5 372.167,276.5 369.5,276.5C 369.762,275.022 369.429,273.689 368.5,272.5C 367.712,273.77 366.712,274.77 365.5,275.5C 361.901,276.344 358.234,276.677 354.5,276.5C 351.944,275.457 349.777,273.79 348,271.5C 346.353,267.893 345.019,264.226 344,260.5C 342.893,265.766 340.06,269.766 335.5,272.5C 329.306,274.125 322.972,274.792 316.5,274.5C 312.296,272.967 308.963,270.3 306.5,266.5C 304.62,262.442 303.62,258.108 303.5,253.5C 304.904,246.328 308.904,241.328 315.5,238.5C 321.878,238.295 328.211,238.628 334.5,239.5C 339.362,241.691 342.362,245.358 343.5,250.5C 343.56,251.043 343.893,251.376 344.5,251.5C 345.493,246.88 345.827,242.214 345.5,237.5C 348.167,237.5 350.833,237.5 353.5,237.5C 353.175,245.352 353.508,253.018 354.5,260.5 Z"></path>
  </g>
  <g>
    <path style="opacity:1" fill="#81438a" d="M 377.5,236.5 C 374.941,236.198 372.607,236.532 370.5,237.5C 369.833,245.167 369.167,252.833 368.5,260.5C 368.334,252.493 368.5,244.493 369,236.5C 371.937,235.183 374.77,235.183 377.5,236.5 Z"></path>
  </g>
  <g>
    <path style="opacity:1" fill="#804088" d="M 278.5,239.5 C 278.5,239.833 278.5,240.167 278.5,240.5C 276.952,240.179 276.285,239.179 276.5,237.5C 273.833,237.5 271.167,237.5 268.5,237.5C 268.5,250.5 268.5,263.5 268.5,276.5C 267.504,263.344 267.171,250.01 267.5,236.5C 270.833,236.5 274.167,236.5 277.5,236.5C 277.263,237.791 277.596,238.791 278.5,239.5 Z"></path>
  </g>
  <g>
    <path style="opacity:1" fill="#661871" d="M 240.5,245.5 C 252.869,244.7 258.036,250.367 256,262.5C 251.764,269.905 245.93,271.405 238.5,267C 234.527,262.277 233.527,256.944 235.5,251C 237.351,249.317 239.017,247.484 240.5,245.5 Z"></path>
  </g>
  <g>
    <path style="opacity:1" fill="#661972" d="M 333.5,250.5 C 334.423,254.064 334.756,257.731 334.5,261.5C 333.354,263.475 331.687,264.975 329.5,266C 319.833,269.012 314.167,265.678 312.5,256C 314.563,246.949 320.229,243.615 329.5,246C 331.635,246.876 332.969,248.376 333.5,250.5 Z"></path>
  </g>
  <g>
    <path style="opacity:1" fill="#9a6aa0" d="M 215.5,234.5 C 219.167,234.5 222.833,234.5 226.5,234.5C 226.182,239.032 226.515,243.366 227.5,247.5C 227.217,248.289 226.717,248.956 226,249.5C 225.501,245.179 225.334,240.846 225.5,236.5C 222.167,236.5 218.833,236.5 215.5,236.5C 215.5,249.833 215.5,263.167 215.5,276.5C 214.178,262.598 214.178,248.598 215.5,234.5 Z"></path>
  </g>
  <g>
    <path style="opacity:1" fill="#ba9abd" d="M 333.5,250.5 C 334.787,251.871 335.453,253.705 335.5,256C 335.494,258.033 335.161,259.866 334.5,261.5C 334.756,257.731 334.423,254.064 333.5,250.5 Z"></path>
  </g>
  <g>
    <path style="opacity:1" fill="#9a69a0" d="M 277.5,252.5 C 277.5,260.833 277.5,269.167 277.5,277.5C 274.287,277.81 271.287,277.477 268.5,276.5C 268.833,276.5 269.167,276.5 269.5,276.5C 271.833,276.5 274.167,276.5 276.5,276.5C 276.174,268.316 276.508,260.316 277.5,252.5 Z"></path>
  </g>
  <g>
    <path style="opacity:1" fill="#84478c" d="M 303.5,253.5 C 303.62,258.108 304.62,262.442 306.5,266.5C 304.62,265.922 303.62,264.588 303.5,262.5C 302.444,259.331 302.444,256.331 303.5,253.5 Z"></path>
  </g>
  <g>
    <path style="opacity:1" fill="#c4aac7" d="M 356.5,266.5 C 359.054,267.388 361.721,267.721 364.5,267.5C 363.378,268.156 362.045,268.489 360.5,268.5C 358.667,268.415 357.334,267.748 356.5,266.5 Z"></path>
  </g>
  <g>
    <path style="opacity:1" fill="#cbb2cd" d="M 335.5,272.5 C 329.549,276.922 323.215,277.589 316.5,274.5C 322.972,274.792 329.306,274.125 335.5,272.5 Z"></path>
  </g>
  <g>
    <path style="opacity:1" fill="#a276a7" d="M 365.5,275.5 C 365.389,276.117 365.056,276.617 364.5,277C 360.973,277.808 357.64,277.641 354.5,276.5C 358.234,276.677 361.901,276.344 365.5,275.5 Z"></path>
  </g>
  <g>
    <path style="opacity:1" fill="#a57baa" d="M 236.5,280.5 C 233.302,279.964 230.635,280.631 228.5,282.5C 227.596,281.791 227.263,280.791 227.5,279.5C 230.713,279.19 233.713,279.523 236.5,280.5 Z"></path>
  </g>
</svg>
